<svg width="374" height="324" viewBox="0 0 374 324" fill="none" xmlns="http://www.w3.org/2000/svg">
<path d="M38.2164 -9.76585e-06C38.0264 0.99999 38.0664 1.43999 37.8764 1.72999C31.4464 11.09 27.5664 21.64 23.8164 32.22C16.1664 53.78 12.2764 75.95 14.0564 98.88C15.6064 118.89 22.6764 137.05 33.2964 153.9C42.7964 168.97 55.0664 181.38 70.0964 190.97C85.4464 200.77 102.146 206.95 120.406 207.78C130.006 208.21 139.666 207.27 149.306 206.99C150.946 206.94 151.336 206.18 151.436 204.65C152.876 182.11 160.836 162.21 176.226 145.61C182.676 138.66 190.516 133.53 200.476 133.17C210.186 132.82 218.416 136.46 224.936 143.56C229.406 148.43 230.666 154.57 230.106 161C228.926 174.44 222.516 185.45 213.636 195.2C203.896 205.89 191.756 212.66 177.966 216.63C174.786 217.54 171.586 218.39 167.926 219.39C168.976 222.6 169.806 225.71 170.996 228.67C177.846 245.79 190.126 258.1 205.876 267.07C225.076 278 245.906 283.16 267.936 283.49C290.156 283.82 311.396 279.19 331.706 270.3C337.336 267.83 342.866 265.12 348.416 262.45C349.466 261.95 350.366 261.14 351.336 260.47C351.256 260.22 351.176 259.98 351.096 259.73C350.426 259.69 349.746 259.58 349.076 259.62C334.046 260.59 319.016 261.58 303.986 262.54C301.746 262.68 299.476 262.56 297.256 262.84C294.856 263.14 292.746 262.56 291.026 261.01C290.336 260.38 290.206 259.13 289.816 258.17C290.746 258.36 291.676 258.52 292.596 258.75C292.876 258.82 293.116 259.06 293.896 258.84C293.406 258.13 293.056 257.24 292.406 256.75C290.936 255.63 291.206 254.57 292.476 253.78C293.996 252.82 295.636 251.68 297.346 251.43C311.986 249.29 326.656 247.25 341.326 245.35C347.016 244.61 352.756 244.16 358.486 243.89C361.446 243.75 364.476 244.06 367.406 244.57C371.306 245.25 373.066 248.02 373.436 251.93C373.836 256.19 372.326 259.48 369.686 262.6C361.536 272.25 353.936 282.43 345.236 291.55C335.946 301.28 325.646 310.03 315.776 319.21C314.806 320.12 313.796 320.98 312.846 321.92C311.596 323.14 310.256 324.37 308.556 322.91C307.016 321.58 307.816 320.05 308.746 318.66C311.006 315.27 313.176 311.81 315.516 308.48C322.626 298.34 329.806 288.24 336.946 278.11C337.156 277.81 337.296 277.45 337.726 276.6C333.796 278.69 330.376 280.5 326.976 282.32C302.456 295.47 276.426 299.71 248.926 295.92C231.956 293.58 215.676 289.1 200.616 280.86C178.276 268.64 161.926 251.24 154.556 226.33C153.176 221.66 153.176 221.75 148.426 221.92C139.286 222.25 130.136 222.84 121.006 222.65C107.386 222.37 94.3764 218.92 81.8364 213.63C56.6264 203 36.7464 186.03 21.8864 163.15C10.1964 145.16 2.5464 125.72 0.566396 104.16C-1.2936 83.84 1.4064 64.19 8.0664 44.98C12.1264 33.27 17.3764 22.17 25.3064 12.55C28.4664 8.70999 32.1664 5.31999 35.6564 1.75999C36.2464 1.15999 37.0464 0.78999 38.2164 -0.0100098V-9.76585e-06ZM166.086 203.81C166.356 204.03 166.626 204.25 166.896 204.46C171.306 203.04 175.786 201.82 180.096 200.16C195.226 194.33 206.486 184.22 212.816 169.17C214.226 165.81 214.646 161.96 215.076 158.28C215.366 155.82 214.246 153.55 212.116 152.01C206.136 147.67 199.746 146.91 193.486 150.94C189.906 153.24 186.566 156.19 183.826 159.45C175.126 169.77 170.166 181.97 167.216 195.03C166.566 197.9 166.446 200.89 166.086 203.82V203.81Z" fill="#22C55E"/>
</svg>
